PathFileType	4	(X/Y/Z)	Kaydara	
DataRate	CameraRate	NumFrames	NumMarkers	Units	OrigDataRate	OrigDataStartFrame	OrigNumFrames	
240.00	240.00	4	72	mm	240.00	45	359	
Frame#	Time	Hips			RightUpLeg			RightLeg			RightFoot			RightFoot_End			LeftUpLeg			LeftLeg			LeftFoot			LeftFoot_End			Spine			Spine1			Spine2			Spine3			Neck			Head			Head_End			RightShoulder			RightArm			RightForeArm			RightHand			RightHandThumb1			RightHandThumb2			RightHandThumb3			RightHandThumb3_End			RightInHandIndex			RightHandIndex1			RightHandIndex2			RightHandIndex3			RightHandIndex3_End			RightInHandMiddle			RightHandMiddle1			RightHandMiddle2			RightHandMiddle3			RightHandMiddle3_End			RightInHandRing			RightHandRing1			RightHandRing2			RightHandRing3			RightHandRing3_End			RightInHandPinky			RightHandPinky1			RightHandPinky2			RightHandPinky3			RightHandPinky3_End			LeftShoulder			LeftArm			LeftForeArm			LeftHand			LeftHandThumb1			LeftHandThumb2			LeftHandThumb3			LeftHandThumb3_End			LeftInHandIndex			LeftHandIndex1			LeftHandIndex2			LeftHandIndex3			LeftHandIndex3_End			LeftInHandMiddle			LeftHandMiddle1			LeftHandMiddle2			LeftHandMiddle3			LeftHandMiddle3_End			LeftInHandRing			LeftHandRing1			LeftHandRing2			LeftHandRing3			LeftHandRing3_End			LeftInHandPinky			LeftHandPinky1			LeftHandPinky2			LeftHandPinky3			LeftHandPinky3_End			
		X1	Y1	Z1	X2	Y2	Z2	X3	Y3	Z3	X4	Y4	Z4	X5	Y5	Z5	X6	Y6	Z6	X7	Y7	Z7	X8	Y8	Z8	X9	Y9	Z9	X10	Y10	Z10	X11	Y11	Z11	X12	Y12	Z12	X13	Y13	Z13	X14	Y14	Z14	X15	Y15	Z15	X16	Y16	Z16	X17	Y17	Z17	X18	Y18	Z18	X19	Y19	Z19	X20	Y20	Z20	X21	Y21	Z21	X22	Y22	Z22	X23	Y23	Z23	X24	Y24	Z24	X25	Y25	Z25	X26	Y26	Z26	X27	Y27	Z27	X28	Y28	Z28	X29	Y29	Z29	X30	Y30	Z30	X31	Y31	Z31	X32	Y32	Z32	X33	Y33	Z33	X34	Y34	Z34	X35	Y35	Z35	X36	Y36	Z36	X37	Y37	Z37	X38	Y38	Z38	X39	Y39	Z39	X40	Y40	Z40	X41	Y41	Z41	X42	Y42	Z42	X43	Y43	Z43	X44	Y44	Z44	X45	Y45	Z45	X46	Y46	Z46	X47	Y47	Z47	X48	Y48	Z48	X49	Y49	Z49	X50	Y50	Z50	X51	Y51	Z51	X52	Y52	Z52	X53	Y53	Z53	X54	Y54	Z54	X55	Y55	Z55	X56	Y56	Z56	X57	Y57	Z57	X58	Y58	Z58	X59	Y59	Z59	X60	Y60	Z60	X61	Y61	Z61	X62	Y62	Z62	X63	Y63	Z63	X64	Y64	Z64	X65	Y65	Z65	X66	Y66	Z66	X67	Y67	Z67	X68	Y68	Z68	X69	Y69	Z69	X70	Y70	Z70	X71	Y71	Z71	X72	Y72	Z72	

45	0.183	6198.941	914.58397	126.699	6250.590168089567	892.6488611892837	51.83376709678235	6155.586148259459	495.9686665382997	-43.769224804267395	6143.763527387992	104.55846734397707	-120.85180375185422	5992.029990121564	27.17311308033317	-34.09049208091748	6161.58516386286	910.5554517379413	213.40327963751238	6070.588532746064	508.46677936222784	287.3088942192184	5996.003026376096	83.28089699121524	372.4347704902559	5874.7294785875365	0.3900305505827064	250.12070662310092	6132.5195377959135	1031.348014876746	77.24576332679072	6069.506928768013	1085.4170876653893	26.760417699801565	6000.581027107369	1134.2982796417123	-28.95287510927847	5930.277489410573	1169.2066665115103	-86.26667108487734	5854.2088224574845	1207.1398258726863	-145.8988570544534	5783.598869779344	1242.4868766482161	-197.64355364078364	5648.519909259743	1326.2345474803285	-209.19953283679632	5896.071407260145	1188.0956203192443	-151.3169663950049	5930.305180090884	1141.7304197328563	-260.37984087553696	5953.715257807013	889.7497928545085	-221.84112013092	5921.481656808483	657.4577222059681	-266.5950341428192	5913.306035824411	641.8134147033563	-285.7525045726665	5895.390299801334	626.7190535725426	-291.2943873632076	5884.019546105194	614.2046650279492	-292.97916808011206	5875.486198500621	602.058723160961	-292.52339570699615	5917.766112917759	632.1374483290447	-280.67958318230103	5910.790913426985	590.6102733669229	-289.9607344633751	5899.279710578939	567.3818468703021	-291.2664163232831	5888.109579174303	560.9069580320463	-290.30083254312774	5876.156751823725	560.9211500594588	-288.3027567396024	5920.699982035305	628.4053976424752	-274.197087131836	5915.485409720409	585.8807562555037	-279.7447256226655	5903.325826242394	560.1832704480165	-280.2775956474084	5890.042093916134	552.2033101875456	-278.68465603914825	5877.0571760885	552.1370569129737	-276.29033179199934	5923.024193526435	626.7494795685702	-269.420320663901	5920.583339373337	586.9705189054669	-270.36243101182674	5910.402704164733	564.2819811643017	-269.9060918096247	5897.811306682605	556.4304166502031	-267.8805792237793	5885.707320808828	556.2950306365811	-265.3975858498493	5925.326542638978	626.6658309693796	-263.33119356661354	5924.75135713997	589.8509666497212	-260.5784362945901	5917.260852676108	571.4036491912176	-258.7720778239672	5908.396754783652	565.5416384592563	-256.5976304586249	5897.858824360603	565.3439895814943	-253.99695158388573	5862.972998089887	1201.3801324896358	-99.75222345086644	5828.275098853771	1174.209933641886	15.089788837159787	5915.068577922455	959.0310716567939	-89.99315726008126	5980.293224464339	747.3464983514141	-221.92828506545888	5988.917078979732	737.9396699949194	-247.8499887556314	6014.437172781268	721.7174746976243	-263.7766385116711	6033.057278050704	707.7621629849504	-273.3062146851804	6049.305416966	693.8542242841322	-279.91457513630746	5991.477868066872	727.119763258223	-245.56711023054885	6017.2170085013995	688.2015728899307	-271.84200621350226	6041.912465870064	663.4045487900814	-285.1202053421512	6058.301162142678	654.4283828356577	-289.86049872077933	6072.564586851223	651.342885171125	-291.4132238513225	5993.210600032486	721.3532034235702	-240.16692717801664	6019.251086150924	680.2737842336638	-262.87513958125567	6046.352356386839	652.5835053645945	-276.56027095312663	6066.1984316367025	641.4509328904708	-281.8934215869963	6081.84103925601	637.9274697228188	-283.4048099363562	5993.719739208007	718.2239253747807	-235.72706053173425	6017.328858129767	678.5507065679961	-252.35818408909586	6041.067039159751	653.8352756688882	-263.42811056128585	6060.272086945621	642.7887741666494	-268.1166567088057	6075.009427429614	639.3297630031698	-269.3217923366808	5994.019457871278	716.1255273999002	-229.48742666895623	6015.671346934756	678.269077737184	-241.05703680660167	6034.759409545835	657.7456289657964	-248.50984205819267	6048.806061206379	649.3340515573433	-251.24686095536555	6061.883051403798	646.0660772743065	-251.92143785269008
46	0.188	6198.941	914.58397	126.699	6250.628511121201	892.692178677023	51.845789969558226	6155.621968643707	495.9966633936738	-43.694960487032354	6143.75749129463	104.58179622193406	-120.75175526696921	5992.026139376592	27.19805552633987	-33.98517184407289	6161.552669602364	910.5139758980357	213.3883849643364	6070.570767970156	508.4295180580457	287.3359870494405	5995.989954811308	83.25509400826445	372.52725192130583	5874.7128045765985	0.3702852545582087	250.21264892814622	6132.491736855609	1031.337719086972	77.2578904410842	6069.4713726358295	1085.3972256182205	26.771603930004062	6000.54735733901	1134.2699584296881	-28.951787006481645	5930.267562024383	1169.1756253032586	-86.29581883110558	5854.222333572391	1207.1065027732177	-145.9587850016053	5783.63014417036	1242.4483542239957	-197.73088769285874	5648.515849747837	1326.1306154885583	-209.277525525592	5896.119986847786	1188.1570560407758	-151.33751180840312	5930.656957079432	1142.241804167801	-260.33616218558336	5955.156712547213	890.4606309610845	-222.67273443322554	5923.658606401107	659.3575228552735	-269.2384058765516	5915.626144375533	644.0863452270992	-288.26890354837883	5897.887379623009	629.2720670232304	-293.95483527010714	5886.639406491115	616.9293220294019	-295.7914708536196	5878.20802023082	604.9064485355121	-295.5063836782417	5920.096682448034	634.368656550793	-283.3574957153631	5913.358949208157	593.2267273383094	-292.93280414239206	5902.01842947639	570.2239352605993	-294.5051034278203	5890.939342258292	563.8551904003486	-293.6744510055793	5879.051707246967	563.9342139965902	-291.7672657330269	5923.021287190871	630.5575176867083	-277.0078822932036	5918.03331965845	588.3658667178811	-282.91429141773096	5906.057999501881	562.9028548203762	-283.75475087053604	5892.883155539859	555.045320385314	-282.33259395351484	5879.969106680795	555.0472662251087	-280.04160609532954	5925.332882738426	628.8362477296157	-272.3172577626528	5923.084128232588	589.300020782406	-273.6549933518751	5913.061710839565	566.8033250748829	-273.4832122909696	5900.574077267937	559.0631977484525	-271.63117539924417	5888.536125381245	558.9887836609767	-269.2494869505875	5927.613897527922	628.6633217391327	-266.32072910474847	5927.20179223299	592.0173670360374	-263.98723592951677	5919.8334214336255	573.7030659723262	-262.43270020680086	5911.042802907875	567.9123713364237	-260.3963765851972	5900.562098049371	567.7629978075375	-257.8921074725172	5862.9335226051	1201.2507455687462	-99.83056735013001	5828.034192748022	1173.73632916628	14.746704015812158	5915.415926434366	959.468404983687	-90.94330983018737	5981.414278589078	749.0915444177897	-223.9503589868386	5990.162418549778	739.9263066692572	-249.62416556201194	6015.732546802838	723.7623075753202	-265.48956211055236	6034.38723223687	709.8410420989451	-275.03199671017217	6050.66397349497	695.9559414752669	-281.69856844114406	5992.7434527322785	729.1262171264043	-247.5138276205442	6018.660106599394	690.4930296424295	-273.8955902577562	6043.426813811474	665.78277375262	-287.2680407148879	6059.817548800435	656.7824775225056	-292.0243292647576	6074.05415713182	653.6243438910601	-293.5615579048174	5994.466803659839	723.3268057592559	-242.26186235844685	6020.675371710454	682.507632223367	-265.15447474123334	6047.85251077628	654.9066363107303	-278.96168830724093	6067.700143903356	643.7423606668999	-284.3233667702235	6083.312971221192	640.1381610405294	-285.82228633965724	5994.965349738674	720.1681924779832	-237.9241668250883	6018.717559492584	680.7060969672409	-254.80977479784283	6042.519676499327	656.0625447118	-266.00547632019084	6061.725063089628	644.9823080684234	-270.7318250275313	6076.4338509246445	641.4458890838281	-271.93011076907305	5995.243269841942	718.0186901220247	-231.79775877199623	6017.0149136418295	680.3283172458234	-243.67122988087277	6036.150126573284	659.8522290165595	-251.2538558308045	6050.195067515357	651.4111122950286	-254.03252700746896	6063.245637955901	648.0717284452763	-254.70913862280497
47	0.192	6198.941	914.58397	126.699	6250.66765447701	892.7364724629437	51.85829356296736	6155.658575253365	496.02574403503917	-43.62056499928462	6143.751304733994	104.60621266577516	-120.65120050354668	5992.022165068218	27.224221169040295	-33.87917998757724	6161.519384891979	910.4714932121584	213.37292347945984	6070.552511228289	508.3912240484626	287.3627035212913	5995.976796617251	83.22844288085645	372.6204027497723	5874.69598177081	0.3497962222172868	250.30525300415874	6132.463856636583	1031.3275143615824	77.27037595150628	6069.435884837858	1085.3779551578511	26.783508838564686	6000.514020535317	1134.242879947178	-28.949715943176273	5930.258428744748	1169.1466334090378	-86.32400830884642	5854.237087260306	1207.076041152326	-146.0177644563259	5783.662995424955	1242.4133127166187	-197.81727853148956	5648.512235593387	1326.0283125258495	-209.35365480036208	5896.170420035981	1188.2229674953783	-151.35663941426145	5931.016047155688	1142.7669614957535	-260.2913015327558	5956.622163395744	891.1906151311514	-223.5176225865818	5925.870045385914	661.3153198241714	-271.92904742467675	5917.985130204203	646.4267700964213	-290.832586666217	5900.424904182549	631.8987365946608	-296.66681010222425	5889.300393054341	619.7315419659342	-298.65891142945776	5880.971185360551	607.8346650766607	-298.54808104750697	5922.465283578983	636.6672306684696	-286.084848505886	5915.967947408048	595.921806315141	-295.9609205754794	5904.798964613304	573.1504672723863	-297.80548976065427	5893.8109082221035	566.8898162318153	-297.1128147540342	5881.988087426752	567.0341604396591	-295.29872549541756	5925.379350061527	632.7754708082522	-279.8697226778623	5920.620157236625	590.926963527143	-286.1422140406494	5908.829853016124	565.704533514903	-287.29662255452666	5895.763795367254	557.9716615243215	-286.0490152553754	5882.920159964047	558.0422852867755	-283.86382169437667	5927.677364817807	630.9874989218772	-275.2662002970698	5925.62184617442	591.7019922254856	-277.0069323741115	5915.758116017751	569.4021994368811	-277.1254369640761	5903.374048844212	561.7755271021845	-275.4506072079779	5891.401655697874	561.7624689895447	-273.1725811496347	5929.935770015451	630.723254180723	-269.3632256196826	5929.687035164481	594.2523472406878	-267.4563314847981	5922.440877837679	576.0746700886236	-266.1584605114072	5913.723451386104	570.3565480565361	-264.2631060161924	5903.299468671692	570.2556661807428	-261.85740616039556	5862.894338522571	1201.122004896787	-99.90841446303698	5827.7904506333125	1173.2553472066438	14.399369138858084	5915.776972236	959.9177307771909	-91.90679590433615	5982.550902745643	750.8821820226849	-226.00284065545347	5991.426974570362	741.9662855932282	-251.42495881804925	6017.0482402539055	725.8640872192653	-267.22689503019353	6035.737821144941	711.9791766860209	-276.78137411302805	6052.04304021462	698.1186664497973	-283.50609717010536	5994.027129869273	731.186496400697	-249.48943380168149	6020.122759232512	692.848007409011	-275.9783021844643	6044.960853925843	668.228626664274	-289.44502045975105	6061.353485682214	659.2047159755009	-294.21662457084835	6075.563006676441	655.9729989857804	-295.7373288760733	5995.7397754493595	725.3532225538412	-244.38763760430245	6022.117135416129	684.803205408067	-267.4659386561375	6049.370112921187	657.2958057950979	-281.3955089139381	6069.219046013093	646.1003686050647	-286.785018368367	6084.801754422462	642.4143566732946	-288.27040434631976	5996.226761761421	722.1643398103906	-240.15349195425895	6020.121877823951	682.9206226435249	-257.29595456081677	6043.9877185586765	658.3525223567284	-268.61793045790523	6063.19309652579	647.2389741215102	-273.3815476819996	6077.872966587609	643.6240888859488	-274.5720477925938	5996.481677458714	719.962159416745	-234.14184228982828	6018.372184843777	682.4436426023763	-246.32231435510246	6037.554089085266	662.0174539641636	-254.03555620384853	6051.596926071451	653.5469509431807	-256.85568137472967	6064.620672845463	650.1351301925297	-257.53360885620765
48	0.196	6198.941	914.58397	126.699	6250.707580700918	892.7817277259385	51.871272828469486	6155.695949055529	496.0559049488885	-43.54608582473014	6143.744966691066	104.63171607203117	-120.55019959773303	5992.018065208051	27.25160983332115	-33.77257800112133	6161.48532429979	910.4280168964883	213.35690003884136	6070.533769409685	508.3519079343832	287.3890240979679	5995.963562862434	83.20094863383771	372.71417480243815	5874.679022980228	0.3285659783190451	250.39847066719943	6132.435910804389	1031.3174085915446	77.28322100179734	6069.400485854135	1085.359299266283	26.796141644609	6000.481039252385	1134.2170827230007	-28.946641132296534	5930.250102780916	1169.1197404488973	-86.35120033215743	5854.253087589203	1207.0485017638678	-146.07573734564593	5783.697420635257	1242.3818234844073	-197.90265124832197	5648.509073176354	1325.9277301124869	-209.4278438178678	5896.222700472145	1188.2933829491712	-151.3743103389162	5931.382347829837	1143.3057903106212	-260.2452795481611	5958.111127673972	891.9395501289848	-224.37551883269617	5928.115153012747	663.3306245281628	-274.66622669280673	5920.3821741268575	648.8341088658074	-293.4429286299775	5903.0019791174345	634.5983833911673	-299.4297009492744	5892.001549579886	622.6105829729379	-301.5808664497967	5883.7746779859635	610.8425832088999	-301.6478348610045	5924.871067708075	639.0326028589961	-288.86094887731826	5918.616962204718	598.6948377587823	-299.04435346718924	5907.620278558355	576.1606921239754	-301.1668009250227	5896.723184813068	570.0100367232856	-300.61513335595663	5884.964756173073	570.2201512579088	-298.89633999893437	5927.773298457352	635.0587077821225	-282.7818549631199	5923.244942688549	593.5634053831484	-289.4276706779844	5911.640304227798	568.5875826396216	-290.9023318601395	5898.682863344575	560.9815531138811	-289.8330179667888	5885.909137149619	561.1212912259018	-287.75606864541476	5930.0567535528535	633.2026998023695	-278.26635308557024	5928.195498878555	594.1758313662469	-280.41735436367554	5918.49083306444	572.0779333873618	-280.83181531385867	5906.210068225604	564.5666808438834	-279.3378975843765	5894.302712064904	564.6153236587731	-277.1658818864052	5932.291259270911	632.8451157362838	-272.4578405573381	5932.206077446291	596.5553448705276	-270.9847609078503	5925.082135702265	578.5178488662605	-269.94833920029566	5916.437563663307	572.8735196869304	-268.1967740425677	5906.069757422862	572.8213125186478	-265.89179118634877	5862.855467179995	1200.9939971556885	-99.98570014146193	5827.543959410788	1172.7671506500933	14.047947440771491	5916.151679440768	960.3789122321033	-92.88329305867995	5983.702604514335	752.717870050062	-228.08509117144698	5992.710263355769	744.0590359382504	-253.2518340429437	6018.383762786025	728.0222525953695	-268.9880924478732	6037.10853918791	714.1760104521527	-278.5537722794648	6053.442089767306	700.3418450852092	-285.3365425483124	5995.328376531139	733.3000147270272	-251.49332845480006	6021.604366449522	695.2658661109457	-278.08949277517166	6046.513943726043	670.7414585846664	-291.65043163847514	6062.908324531485	661.6944652665052	-296.4366379844024	6077.090496399231	658.3882452973836	-297.9397661819743	5997.028966833179	727.4318650195762	-246.54359144753178	6023.575739730558	687.1598612740974	-269.80878909598397	6050.904475751988	659.750361522961	-283.86091306529454	6070.7544424400485	648.5243236751348	-289.27751218246624	6086.306702641174	644.755453951049	-290.7482717214237	5997.503410375243	724.2117779218839	-242.41433264139698	6021.541153734234	685.1936445040972	-259.81591184897513	6045.470459732163	660.7045609602125	-271.2645859184131	6064.6754718754	649.5581432514164	-276.06489045430067	6079.326067025075	645.8637618745121	-277.24664081600804	5997.734100777174	721.9553491001113	-236.51892603817447	6019.742483972263	684.614423033762	-249.00941069122553	6038.97057917055	664.2406663673921	-256.85399115501286	6053.010909738041	655.7409436914477	-259.7153318274999	6066.007434802734	652.2556840368534	-260.39382784694715
